<svg width="24" height="24" viewBox="0 0 24 24" fill="none" xmlns="http://www.w3.org/2000/svg">
<path d="M11.98 22.5426C10.7975 22.5426 9.65249 22.3101 8.57248 21.8551C7.52998 21.4151 6.59498 20.7826 5.78998 19.9801C4.98748 19.1776 4.35498 18.2401 3.91498 17.1976C3.45748 16.1176 3.22748 14.9726 3.22748 13.7901C3.22748 12.6076 3.45998 11.4626 3.91498 10.3826C4.35498 9.3401 4.98748 8.4051 5.78998 7.6001C6.59248 6.7976 7.52998 6.1651 8.57248 5.7251C9.65248 5.2676 10.7975 5.0376 11.98 5.0376C13.1625 5.0376 14.3075 5.2701 15.3875 5.7251C16.43 6.1651 17.365 6.7976 18.17 7.6001C18.9725 8.4026 19.605 9.3401 20.045 10.3826C20.5025 11.4626 20.7325 12.6076 20.7325 13.7901C20.7325 14.9726 20.5 16.1176 20.045 17.1976C19.605 18.2401 18.9725 19.1751 18.17 19.9801C17.3675 20.7826 16.43 21.4151 15.3875 21.8551C14.3075 22.3101 13.1625 22.5426 11.98 22.5426ZM11.98 6.5426C7.98499 6.5426 4.73248 9.79261 4.73248 13.7901C4.73248 17.7876 7.98249 21.0376 11.98 21.0376C15.9775 21.0376 19.2275 17.7876 19.2275 13.7901C19.2275 9.79261 15.9775 6.5426 11.98 6.5426Z" fill="#BE7575"/>
<path d="M6.90247 4.4101C6.90247 2.8176 8.19247 1.52759 9.78498 1.52759C10.665 1.52759 11.4525 1.92259 11.98 2.54259C12.51 1.92259 13.2975 1.52759 14.175 1.52759C15.7675 1.52759 17.0575 2.81759 17.0575 4.4101C17.0575 5.2451 16.6725 5.9451 16.1325 6.5251L11.97 10.5301L7.87496 6.5701C7.35496 6.0276 6.90247 5.2701 6.90247 4.4101Z" fill="#D1525C"/>
<path d="M11.97 10.5301L7.87496 6.5701C7.35496 6.0276 6.90247 5.2701 6.90247 4.4101C6.90247 2.8176 8.19247 1.52759 9.78497 1.52759C10.665 1.52759 11.4525 1.92259 11.98 2.54259L11.97 10.5301Z" fill="#DB6574"/>
</svg>
